<svg width="30" height="29" viewBox="0 0 30 29" fill="none" xmlns="http://www.w3.org/2000/svg">
<path d="M22.695 13.7368L24.585 11.8137C25.245 11.1421 26.085 10.7758 27 10.6842V9.1579L18 0H3C1.335 0 0 1.35842 0 3.05263V24.4211C0 26.1 1.335 27.4737 3 27.4737H12V24.6195L12.195 24.4211H3V3.05263H13.5V13.7368H22.695ZM16.5 2.28947L24.75 10.6842H16.5V2.28947ZM24.195 16.53L27.255 19.6437L18.06 29H15V25.8863L24.195 16.53ZM29.775 17.0795L28.305 18.5753L25.245 15.4616L26.715 13.9658C27 13.6605 27.495 13.6605 27.795 13.9658L29.775 15.9805C30.075 16.2858 30.075 16.7895 29.775 17.0795Z" fill="#F34F3A"/>
</svg>
